<?xml version="1.0"?>
<svg xmlns="http://www.w3.org/2000/svg" xmlns:xlink="http://www.w3.org/1999/xlink" xmlns:svgjs="http://svgjs.com/svgjs" version="1.1" width="512" height="512" x="0" y="0" viewBox="0 0 64 64" style="enable-background:new 0 0 512 512" xml:space="preserve" class=""><g><g xmlns="http://www.w3.org/2000/svg"><path d="m16 46c-2.206 0-4 1.794-4 4s1.794 4 4 4 4-1.794 4-4-1.794-4-4-4zm0 6c-1.103 0-2-.897-2-2s.897-2 2-2 2 .897 2 2-.897 2-2 2z" fill="#027e85" data-original="#000000" style=""/><path d="m60 8c-1.654 0-3 1.346-3 3v1h-2c0-1.103-.897-2-2-2h-2c-1.103 0-2 .897-2 2v30h-6v-6c1.103 0 2-.897 2-2v-2c0-1.103-.897-2-2-2h-1.484l5.484-12.795v-4.508l-4.465-6.697h-17.07l-4.465 6.697v4.508l5.484 12.795h-1.484c-1.103 0-2 .897-2 2v2c0 1.103.897 2 2 2v6h-6v-32h-5.2l-12.8 5.333v24.667h12v2.589c-2.928 1.19-5 4.061-5 7.411 0 4.411 3.589 8 8 8s8-3.589 8-8c0-.692-.097-1.359-.263-2h4.263c1.654 0 3-1.346 3-3v-4c0-.551.449-1 1-1s1 .449 1 1v11c0 1.654 1.346 3 3 3s3-1.346 3-3v-3c0-.551.449-1 1-1h9v4h-1.535l-2.465 3.697v2.303h14v-2.303l-2.465-3.697h-1.535v-32h2v1c0 1.654 1.346 3 3 3s3-1.346 3-3v-10c0-1.654-1.346-3-3-3zm-15 6v2h-22v-2zm-18.465-6h14.93l2.667 4h-20.264zm-3.019 10h20.967l-5.143 12h-10.681zm1.484 14h18v2h-18zm-22 6v-21.333l10-4.167v25.5zm12-26h2v30.069c-.328-.041-.661-.069-1-.069s-.672.028-1 .069zm1 44c-3.309 0-6-2.691-6-6s2.691-6 6-6 6 2.691 6 6-2.691 6-6 6zm5.274-12h3.726v1c0 .352.072.686.184 1h-2.267c-.437-.753-.993-1.428-1.643-2zm15.726 5v3c0 .551-.449 1-1 1s-1-.449-1-1v-11c0-1.654-1.346-3-3-3s-3 1.346-3 3v4c0 .551-.449 1-1 1s-1-.449-1-1v-9h14v9c0 .551-.449 1-1 1-1.654 0-3 1.346-3 3zm5.816-3c.112-.314.184-.648.184-1v-1h6v2zm12.649 8 1.333 2h-9.597l1.333-2h.466 6zm-4.465-2v-40l2-.001v40.001zm4-34v-4h2v4zm6 3c0 .551-.449 1-1 1s-1-.449-1-1v-10c0-.551.449-1 1-1s1 .449 1 1z" fill="#027e85" data-original="#000000" style=""/><path d="m5 34h6v2h-6z" fill="#027e85" data-original="#000000" style=""/><path d="m5 30h6v2h-6z" fill="#027e85" data-original="#000000" style=""/><path d="m9 18h-2c-1.103 0-2 .897-2 2v6c0 1.103.897 2 2 2h2c1.103 0 2-.897 2-2v-6c0-1.103-.897-2-2-2zm-2 8v-6h2l.001 6z" fill="#027e85" data-original="#000000" style=""/></g></g></svg>
