<?xml version="1.0"?>
<svg xmlns="http://www.w3.org/2000/svg" xmlns:xlink="http://www.w3.org/1999/xlink" xmlns:svgjs="http://svgjs.com/svgjs" version="1.1" width="512" height="512" x="0" y="0" viewBox="0 0 480 480" style="enable-background:new 0 0 512 512" xml:space="preserve" class=""><g><path xmlns="http://www.w3.org/2000/svg" d="m472 0h-464c-4.417969 0-8 3.582031-8 8v240c.0273438 22.082031 17.917969 39.972656 40 40h136v128c0 35.347656 28.652344 64 64 64s64-28.652344 64-64v-128h136c22.082031-.027344 39.972656-17.917969 40-40v-240c0-4.417969-3.582031-8-8-8zm-184 416c0 26.507812-21.492188 48-48 48s-48-21.492188-48-48v-128h96zm176-168c0 13.253906-10.746094 24-24 24h-400c-13.253906 0-24-10.746094-24-24v-40h448zm0-56h-448v-32h448zm0-48h-448v-128h448zm0 0" fill="#027e85" data-original="#000000" style="" class=""/><path xmlns="http://www.w3.org/2000/svg" d="m240 448c17.671875 0 32-14.328125 32-32s-14.328125-32-32-32-32 14.328125-32 32 14.328125 32 32 32zm0-48c8.835938 0 16 7.164062 16 16s-7.164062 16-16 16-16-7.164062-16-16 7.164062-16 16-16zm0 0" fill="#027e85" data-original="#000000" style="" class=""/></g></svg>
