<?xml version="1.0"?>
<svg xmlns="http://www.w3.org/2000/svg" xmlns:xlink="http://www.w3.org/1999/xlink" xmlns:svgjs="http://svgjs.com/svgjs" version="1.1" width="512" height="512" x="0" y="0" viewBox="0 0 480 480" style="enable-background:new 0 0 512 512" xml:space="preserve" class=""><g transform="matrix(1,0,0,1,90,0)"><path xmlns="http://www.w3.org/2000/svg" d="m302.96875 131.71875c.128906-.246094.320312-.4375.421875-.695312.390625-.945313.597656-1.953126.609375-2.976563v-24.046875c-.046875-39.746094-32.253906-71.953125-72-72h-64v-24c0-4.417969-3.582031-8-8-8h-32c-4.417969 0-8 3.582031-8 8v24h-32c-4.417969 0-8 3.582031-8 8v16c0 4.417969-3.582031 8-8 8h-8v-24c0-4.417969-3.582031-8-8-8h-48c-4.417969 0-8 3.582031-8 8v96c0 4.417969 3.582031 8 8 8h48c4.417969 0 8-3.582031 8-8v-17.449219c12.902344 7.21875 21.777344 19.957031 24.078125 34.5625.09375.378907.21875.75.371094 1.109375.105469.421875.242187.832032.40625 1.234375.273437.519531.605469 1.007813.984375 1.453125.222656.316406.46875.617188.734375.898438.488281.421875 1.023437.785156 1.601562 1.070312.28125.191406.570313.367188.871094.519532.9375.390624 1.941406.59375 2.953125.601562h24v104c-8.835938 0-16 7.164062-16 16v184c0 8.835938 7.164062 16 16 16h48c8.835938 0 16-7.164062 16-16v-184c0-8.835938-7.164062-16-16-16v-104h16c4.417969 0 8-3.582031 8-8v-56h40c24.003906-.117188 45.972656 13.476562 56.585938 35.007812v.0625c.046874.097657.117187.175782.167968.273438.351563.757812.820313 1.453125 1.390625 2.0625.191407.203125.398438.363281.609375.546875.503906.449219 1.066406.828125 1.671875 1.125.246094.132813.5.253906.757813.363281.898437.355469 1.851562.546875 2.816406.558594 1.03125 0 2.050781-.199219 3.007812-.585938h.054688c.820312-.363281 1.574219-.863281 2.226562-1.476562.6875-.632812 1.257813-1.382812 1.679688-2.21875zm-166.96875-115.71875h16v16h-16zm-88 112h-32v-80h32zm120 336h-48v-184h48zm-16-200h-16v-104h16zm80-184h-48c-4.417969 0-8 3.582031-8 8v56h-73.511719c-4.972656-18.339844-17.726562-33.582031-34.902343-41.710938-1.113282-.554687-2.402344-.914062-3.585938-1.402343v-20.886719h8c13.253906 0 24-10.746094 24-24v-8h136c30.367188.03125 55.175781 24.257812 55.929688 54.617188-15.101563-14.359376-35.09375-22.445313-55.929688-22.617188zm0 0" fill="#027e85" data-original="#000000" style="" class=""/></g></svg>
