<?xml version="1.0"?>
<svg xmlns="http://www.w3.org/2000/svg" xmlns:xlink="http://www.w3.org/1999/xlink" xmlns:svgjs="http://svgjs.com/svgjs" version="1.1" width="512" height="512" x="0" y="0" viewBox="0 0 480 480" style="enable-background:new 0 0 512 512" xml:space="preserve" class=""><g transform="matrix(1,0,0,1,115,0)"><path xmlns="http://www.w3.org/2000/svg" d="m248 0h-240c-4.417969 0-8 3.582031-8 8v352c0 4.417969 3.582031 8 8 8h80v96c0 8.835938 7.164062 16 16 16h48c8.835938 0 16-7.164062 16-16v-96h80c4.417969 0 8-3.582031 8-8v-352c0-4.417969-3.582031-8-8-8zm-144 464v-208h48v208zm32-224h-16v-128c0-4.417969 3.582031-8 8-8s8 3.582031 8 8zm104 112h-72v-96c0-8.835938-7.164062-16-16-16v-128c0-13.253906-10.746094-24-24-24s-24 10.746094-24 24v128c-8.835938 0-16 7.164062-16 16v96h-72v-336h224zm0 0" fill="#027e85" data-original="#000000" style="" class=""/></g></svg>
